<svg width="188" height="188" viewBox="0 0 188 188" fill="none" xmlns="http://www.w3.org/2000/svg">
<path d="M148.833 54.8334H125.333V47C125.333 38.6899 122.032 30.7201 116.156 24.844C110.28 18.9679 102.31 15.6667 94 15.6667C85.6899 15.6667 77.7202 18.9679 71.844 24.844C65.9679 30.7201 62.6667 38.6899 62.6667 47V54.8334H39.1667C37.0892 54.8334 35.0967 55.6587 33.6277 57.1277C32.1587 58.5967 31.3334 60.5892 31.3334 62.6667V148.833C31.3334 155.066 33.8093 161.043 38.2164 165.45C42.6235 169.857 48.6008 172.333 54.8334 172.333H133.167C139.399 172.333 145.377 169.857 149.784 165.45C154.191 161.043 156.667 155.066 156.667 148.833V62.6667C156.667 60.5892 155.841 58.5967 154.372 57.1277C152.903 55.6587 150.911 54.8334 148.833 54.8334ZM78.3334 47C78.3334 42.845 79.984 38.8601 82.922 35.922C85.8601 32.9839 89.845 31.3334 94 31.3334C98.1551 31.3334 102.14 32.9839 105.078 35.922C108.016 38.8601 109.667 42.845 109.667 47V54.8334H78.3334V47ZM141 148.833C141 150.911 140.175 152.903 138.706 154.372C137.237 155.841 135.244 156.667 133.167 156.667H54.8334C52.7558 156.667 50.7634 155.841 49.2944 154.372C47.8253 152.903 47 150.911 47 148.833V70.5H62.6667V78.3334C62.6667 80.4109 63.492 82.4033 64.961 83.8724C66.4301 85.3414 68.4225 86.1667 70.5 86.1667C72.5776 86.1667 74.57 85.3414 76.039 83.8724C77.5081 82.4033 78.3334 80.4109 78.3334 78.3334V70.5H109.667V78.3334C109.667 80.4109 110.492 82.4033 111.961 83.8724C113.43 85.3414 115.423 86.1667 117.5 86.1667C119.578 86.1667 121.57 85.3414 123.039 83.8724C124.508 82.4033 125.333 80.4109 125.333 78.3334V70.5H141V148.833Z" fill="url(#paint0_linear)"/>
<defs>
<linearGradient id="paint0_linear" x1="31.3334" y1="94" x2="156.667" y2="94" gradientUnits="userSpaceOnUse">
<stop stop-color="#FF512F"/>
<stop offset="1" stop-color="#DD2476"/>
</linearGradient>
</defs>
</svg>
